M48
;DRILL file {KiCad 4.0.7-e2-6376~61~ubuntu18.04.1} date Thu Aug 30 14:32:03 2018
;FORMAT={-:-/ absolute / metric / decimal}
FMAT,2
METRIC,TZ
T1C0.800
T2C1.000
T3C1.470
%
G90
G05
M71
T1
X117.792Y-82.36
X117.792Y-84.36
X117.792Y-86.36
T2
X117.792Y-69.85
X117.792Y-72.39
X117.792Y-74.93
X138.938Y-69.913
X138.938Y-72.453
X138.938Y-74.993
X139.382Y-82.55
X139.382Y-85.09
X139.382Y-87.63
T3
X108.902Y-60.96
X108.902Y-65.96
X108.902Y-71.12
X108.902Y-76.12
X108.902Y-81.28
X108.902Y-86.28
X153.352Y-58.58
X153.352Y-63.58
X153.352Y-68.58
X153.352Y-73.74
X153.352Y-78.74
X153.352Y-83.9
X153.352Y-88.9
T0
M30
